        <svg id="Layer_1" data-name="Layer 1" xmlns="http://www.w3.org/2000/svg" xmlns:xlink="http://www.w3.org/1999/xlink" viewBox="0 0 239.85 51.79">
            <defs>
            <style>.cls-1{fill:url(#linear-gradient);}.cls-2{fill:url(#linear-gradient-2);}.cls-3{fill:url(#linear-gradient-3);}.cls-4{fill:#535151;}</style>
            <linearGradient id="linear-gradient" x1="16.73" y1="11.95" x2="45.68" y2="28.67" gradientUnits="userSpaceOnUse">
            <stop offset="0.09" stop-color="#f15645"/>
            <stop offset="0.26" stop-color="#ed5545"/>
            <stop offset="0.42" stop-color="#e15046"/>
            <stop offset="0.58" stop-color="#ce4948"/>
            <stop offset="0.74" stop-color="#b23f4a"/>
            <stop offset="0.9" stop-color="#8e324c"/>
            <stop offset="1" stop-color="#73284e"/>
            </linearGradient>
            <linearGradient id="linear-gradient-2" x1="20.56" y1="44.05" x2="44.16" y2="24.24" gradientUnits="userSpaceOnUse">
            <stop offset="0" stop-color="#ce5542"/>
            <stop offset="0.04" stop-color="#d25c42"/>
            <stop offset="0.3" stop-color="#e78640"/>
            <stop offset="0.5" stop-color="#f5a03f"/>
            <stop offset="0.62" stop-color="#faaa3f"/>
            <stop offset="0.74" stop-color="#fbb132"/>
            <stop offset="0.96" stop-color="#fec40f"/>
            <stop offset="1" stop-color="#ffc709"/>
            </linearGradient>
            <linearGradient id="linear-gradient-3" x1="20.67" y1="59.42" x2="29.62" y2="43.91" gradientUnits="userSpaceOnUse">
            <stop offset="0.1" stop-color="#64bc50"/>
            <stop offset="0.3" stop-color="#61b850"/>
            <stop offset="0.48" stop-color="#56ad4f"/>
            <stop offset="0.66" stop-color="#449a4f"/>
            <stop offset="0.84" stop-color="#2c7f4d"/>
            <stop offset="1" stop-color="#0e5f4c"/>
            </linearGradient>
            </defs>
            <path class="cls-1" d="M52.51,14.31a.74.74,0,0,1,.62,1.33L36.62,29.72a5.27,5.27,0,0,1-4.77,1.18L9.71,26.38c-1-.23-1.08-1.25,0-1.5Z" transform="translate(-8.93 -14.29)"/>
            <path class="cls-2" d="M52.9,35.14c1,.09,1.08,1.08.22,1.49L38.3,44.12c-1.53.79-2.76.43-4.52-.4L11.64,33.19c-1.1-.5-.71-1.57.39-1.47Z" transform="translate(-8.93 -14.29)"/>
            <path class="cls-3" d="M16,41.45c-.55-.8-.11-1.67,1-1.29L33.14,46a3.21,3.21,0,0,1,2,3.49L33.06,65c-.24,1.34-.9,1.39-1.65.38Z" transform="translate(-8.93 -14.29)"/>
            <path class="cls-4" d="M78,42.64H69.24V50.3H64.12V30.46h15v5H69.24v2.26H78Z" transform="translate(-8.93 -14.29)"/>
            <path class="cls-4" d="M90.78,43.67H87.85V50.3H82.73V30.46H91.5c5.31,0,7.1,2.9,7.1,6.59a6.65,6.65,0,0,1-2.7,5.55l4.52,7.7h-6Zm.56-8.25H87.85v3.29h3.49c1.63,0,1.94-.71,1.94-1.66S93,35.42,91.34,35.42Z" transform="translate(-8.93 -14.29)"/>
            <path class="cls-4" d="M104.17,50.3V30.46h5.08V50.3Z" transform="translate(-8.93 -14.29)"/>
            <path class="cls-4" d="M121.78,38.63l9.6,11.67h-3.45l-7.82-10.08-2.49,2.38v7.7H115V30.46h2.62v9l9-9h3.73Z" transform="translate(-8.93 -14.29)"/>
            <path class="cls-4" d="M148.44,50.3l-1.82-4.76h-9.25l-1.78,4.76h-2.9L141,30.07h2l8.33,20.23Zm-10.27-6.83h7.65L142,33.36Z" transform="translate(-8.93 -14.29)"/>
            <path class="cls-4" d="M169.47,50.3,157.13,35.22l0,15.08h-2.62V30.46h1.75l12.33,15.08,0-15.08h2.62V50.3Z" transform="translate(-8.93 -14.29)"/>
            <path class="cls-4" d="M190.18,50.3l-1.83-4.76h-9.24l-1.79,4.76h-2.89l8.33-20.23h2l8.33,20.23ZM179.9,43.47h7.66l-3.81-10.11Z" transform="translate(-8.93 -14.29)"/>
            <path class="cls-4" d="M198.91,47.88h11.86V50.3H196.29V30.46h2.62Z" transform="translate(-8.93 -14.29)"/>
            <path class="cls-4" d="M226.32,41.33H215.85v6.55h11.86V50.3H213.23V30.46h14.48v2.42H215.85v6h10.47Z" transform="translate(-8.93 -14.29)"/>
            <path class="cls-4" d="M247,50.3,234.69,35.22l0,15.08h-2.62V30.46h1.75L246.2,45.54l0-15.08h2.62V50.3Z" transform="translate(-8.93 -14.29)"/>
        </svg> 
